<svg xmlns="http://www.w3.org/2000/svg" version="1.1" xmlns:xlink="http://www.w3.org/1999/xlink" xmlns:svgjs="http://svgjs.com/svgjs" width="621" height="625"><svg width="621" height="625" viewBox="0 0 621 625" fill="none" xmlns="http://www.w3.org/2000/svg">
<path d="M0.608398 155.377C0.608398 69.8037 69.9793 0.432892 155.553 0.432892C241.126 0.432892 310.497 69.8037 310.497 155.377C310.497 240.95 241.126 310.321 155.553 310.321C69.9793 310.321 0.608398 240.95 0.608398 155.377Z" fill="black" data-darkreader-inline-fill="" style="--darkreader-inline-fill:#000000;"></path>
<path d="M59.1725 498.353C59.1725 461.896 88.7262 432.342 125.183 432.342C161.639 432.342 191.192 461.896 191.192 498.353C191.192 534.809 161.639 564.362 125.183 564.362C88.726 564.362 59.1725 534.809 59.1725 498.353Z" stroke="black" stroke-width="32" stroke-linecap="round" stroke-linejoin="round" data-darkreader-inline-stroke="" style="--darkreader-inline-stroke:#e8e6e3;"></path>
<path d="M431.206 124.885C431.206 88.4286 460.76 58.8749 497.216 58.8749C533.673 58.8749 563.226 88.4284 563.226 124.885C563.226 161.342 533.673 190.895 497.216 190.895C460.76 190.895 431.206 161.342 431.206 124.885Z" stroke="black" stroke-width="32" stroke-linecap="round" stroke-linejoin="round" data-darkreader-inline-stroke="" style="--darkreader-inline-stroke:#e8e6e3;"></path>
<path d="M311 469.944C311 384.371 380.371 315 465.944 315C551.518 315 620.889 384.371 620.889 469.944C620.889 555.518 551.518 624.888 465.944 624.888C380.371 624.888 311 555.518 311 469.944Z" fill="black" data-darkreader-inline-fill="" style="--darkreader-inline-fill:#000000;"></path>
</svg><style>@media (prefers-color-scheme: light) { :root { filter: none; } }
@media (prefers-color-scheme: dark) { :root { filter: invert(100%); } }
</style></svg>